<svg width="248" height="214" viewBox="0 0 248 214" fill="none" xmlns="http://www.w3.org/2000/svg">
<path d="M98.4839 7.72039C105.28 -1.94063 118.939 -2.65295 126.637 6.25226L243.338 141.261C253.799 153.362 245.511 172.589 229.835 172.589L18.1615 172.589C3.33474 172.589 -5.22227 155.147 3.51253 142.729L98.4839 7.72039ZM123.936 8.76024C117.778 1.63602 106.851 2.20584 101.414 9.93486L6.44168 144.944C-0.545749 154.877 6.30046 168.831 18.1618 168.831L229.835 168.832C242.376 168.832 249.006 153.45 240.638 143.769L123.936 8.76024Z" fill="#616161"/>
<path d="M31.4423 82.5167C31.4423 75.8923 33.1851 70.2784 36.6709 65.6749C40.2655 60.9592 44.9495 57.4224 50.7227 55.0646C56.6049 52.5944 63.0317 51.3594 70.0032 51.3594C77.0836 51.3594 83.5104 52.5944 89.2836 55.0646C95.1658 57.4224 99.8497 60.9592 103.335 65.6749C106.93 70.2784 108.727 75.8923 108.727 82.5167C108.727 87.9061 107.584 92.6218 105.296 96.6639C103.118 100.594 100.122 103.906 96.3096 106.601C92.606 109.183 88.4667 111.092 83.8916 112.327C79.3166 113.562 74.6871 114.179 70.0032 114.179C65.3192 114.179 60.6897 113.562 56.1147 112.327C51.5397 111.092 47.4004 109.183 43.6968 106.601C39.9932 103.906 36.9977 100.594 34.7101 96.6639C32.5316 92.6218 31.4423 87.9061 31.4423 82.5167ZM57.4219 85.2114C57.4219 87.9061 57.9665 90.264 59.0558 92.285C60.1451 94.306 61.6156 95.8779 63.4674 97.0007C65.4282 98.1235 67.6067 98.6849 70.0032 98.6849C72.5085 98.6849 74.6871 98.1235 76.5389 97.0007C78.4997 95.8779 80.0246 94.306 81.1139 92.285C82.2032 90.264 82.7479 87.9061 82.7479 85.2114C82.7479 82.629 82.2032 80.3273 81.1139 78.3063C80.1336 76.173 78.663 74.545 76.7023 73.4222C74.8505 72.2994 72.6175 71.738 70.0032 71.738C67.6067 71.738 65.4282 72.2994 63.4674 73.4222C61.5067 74.545 59.9817 76.173 58.8924 78.3063C57.912 80.3273 57.4219 82.629 57.4219 85.2114ZM27.3574 139.947C27.3574 133.772 28.6646 128.495 31.2789 124.116C33.8932 119.625 37.3244 116.032 41.5727 113.337C45.8209 110.53 50.4504 108.509 55.4611 107.274C60.4719 105.927 65.3192 105.253 70.0032 105.253C74.6871 105.253 79.5345 105.927 84.5452 107.274C89.556 108.509 94.1854 110.53 98.4337 113.337C102.791 116.032 106.277 119.625 108.891 124.116C111.505 128.495 112.812 133.772 112.812 139.947C112.812 145.337 111.669 150.165 109.381 154.431C107.094 158.698 103.935 162.347 99.9042 165.379C95.8738 168.41 91.2988 170.712 86.1791 172.284C81.0595 173.856 75.6675 174.642 70.0032 174.642C64.4478 174.642 59.1103 173.856 53.9906 172.284C48.8709 170.712 44.2959 168.41 40.2655 165.379C36.2351 162.347 33.0762 158.698 30.7887 154.431C28.5012 150.165 27.3574 145.337 27.3574 139.947ZM54.8076 135.569C54.8076 139.049 55.4611 141.968 56.7683 144.326C58.1844 146.684 60.0361 148.481 62.3237 149.716C64.7201 150.951 67.2799 151.568 70.0032 151.568C72.8353 151.568 75.3952 150.951 77.6827 149.716C80.0791 148.481 81.9309 146.684 83.2381 144.326C84.6541 141.968 85.3622 139.049 85.3622 135.569C85.3622 132.762 84.6541 130.179 83.2381 127.821C81.9309 125.463 80.0791 123.611 77.6827 122.263C75.3952 120.916 72.8353 120.242 70.0032 120.242C67.2799 120.242 64.7201 120.916 62.3237 122.263C60.0361 123.611 58.1844 125.463 56.7683 127.821C55.4611 130.179 54.8076 132.762 54.8076 135.569Z" fill="white"/>
<path d="M168.554 88.6494C168.554 85.2121 167.815 82.2521 166.338 79.7696C164.952 77.1916 163.013 75.2342 160.519 73.8974C158.118 72.4652 155.394 71.7491 152.346 71.7491C149.206 71.7491 146.389 72.4652 143.896 73.8974C141.495 75.2342 139.555 77.1916 138.078 79.7696C136.692 82.2521 136 85.2121 136 88.6494C136 91.9913 136.692 94.9512 138.078 97.5292C139.555 100.107 141.495 102.112 143.896 103.545C146.389 104.977 149.206 105.693 152.346 105.693C155.394 105.693 158.118 104.977 160.519 103.545C163.013 102.112 164.952 100.107 166.338 97.5292C167.815 94.9512 168.554 91.9913 168.554 88.6494ZM152.485 153.243H122.839L154.285 117.008L158.995 114.859C156.41 117.437 153.916 119.156 151.515 120.015C149.206 120.779 146.297 121.161 142.788 121.161C139.186 121.161 135.584 120.445 131.982 119.013C128.473 117.485 125.287 115.337 122.424 112.568C119.561 109.703 117.252 106.266 115.497 102.256C113.743 98.2453 112.865 93.7099 112.865 88.6494C112.865 80.3425 114.62 73.42 118.129 67.8821C121.731 62.3441 126.487 58.1907 132.398 55.4217C138.401 52.5572 145.05 51.125 152.346 51.125C159.55 51.125 166.107 52.5572 172.017 55.4217C178.02 58.1907 182.776 62.3441 186.286 67.8821C189.888 73.42 191.688 80.3425 191.688 88.6494C191.688 93.9964 190.58 98.9615 188.364 103.545C186.24 108.128 183.608 112.424 180.468 116.435L152.485 153.243Z" fill="white"/>
<path d="M190.411 155.797C188.412 155.797 186.413 155.552 184.414 155.062C182.442 154.571 180.717 153.877 179.238 152.978L182.196 146.891C183.346 147.653 184.619 148.239 186.016 148.648C187.44 149.056 188.823 149.26 190.165 149.26C191.561 149.26 192.67 149.002 193.492 148.484C194.313 147.967 194.724 147.231 194.724 146.278C194.724 145.434 194.382 144.766 193.697 144.276C193.013 143.759 191.89 143.5 190.329 143.5H186.92V138.393L194.642 130.1L195.422 132.878H180.717V126.627H201.502V131.693L193.779 139.986L189.795 137.739H192.013C195.6 137.739 198.311 138.543 200.146 140.15C202.008 141.73 202.939 143.772 202.939 146.278C202.939 147.912 202.487 149.451 201.584 150.895C200.707 152.338 199.352 153.523 197.517 154.449C195.682 155.348 193.314 155.797 190.411 155.797Z" fill="white"/>
<path d="M165.906 150.45C165.906 148.962 166.381 147.699 167.331 146.66C168.314 145.587 169.576 145.051 171.115 145.051C172.655 145.051 173.9 145.587 174.85 146.66C175.8 147.699 176.275 148.962 176.275 150.45C176.275 151.904 175.8 153.167 174.85 154.24C173.9 155.279 172.655 155.798 171.115 155.798C169.576 155.798 168.314 155.279 167.331 154.24C166.381 153.167 165.906 151.904 165.906 150.45Z" fill="white"/>
<path d="M51.9643 190.332C54.5691 190.332 56.5962 191.138 58.0456 192.749C59.5161 194.338 60.2513 196.646 60.2513 199.672V213.65H54.0124V199.868C54.0124 198.497 53.6658 197.463 52.9726 196.766C52.2794 196.047 51.3552 195.688 50.1998 195.688C48.9604 195.688 47.9732 196.069 47.2379 196.831C46.5237 197.571 46.1666 198.693 46.1666 200.195V213.65H39.9278V199.868C39.9278 198.497 39.6022 197.463 38.951 196.766C38.3208 196.047 37.449 195.688 36.3357 195.688C35.1384 195.688 34.1826 196.069 33.4684 196.831C32.7542 197.571 32.397 198.693 32.397 200.195V213.65H26.1582V190.79H32.208V193.337C32.8802 192.357 33.7414 191.617 34.7918 191.116C35.8631 190.594 37.1024 190.332 38.5099 190.332C39.9593 190.332 41.2197 190.604 42.291 191.149C43.3833 191.693 44.2656 192.488 44.9378 193.533C45.694 192.488 46.6813 191.693 47.8996 191.149C49.118 190.604 50.4729 190.332 51.9643 190.332Z" fill="white"/>
<path d="M86.1116 192.545V213.65H79.3116V211.547C77.9842 213.183 75.9805 214 73.3006 214C71.4472 214 69.7566 213.559 68.2289 212.676C66.7261 211.768 65.5239 210.483 64.6222 208.822C63.7456 207.16 63.3073 205.239 63.3073 203.059C63.3073 200.878 63.7456 198.97 64.6222 197.335C65.5239 195.674 66.7261 194.402 68.2289 193.519C69.7566 192.636 71.4472 192.195 73.3006 192.195C75.705 192.195 77.596 192.922 78.9735 194.376V192.545H86.1116ZM74.8034 208.121C76.0557 208.121 77.0826 207.679 77.884 206.797C78.6855 205.888 79.0862 204.642 79.0862 203.059C79.0862 201.501 78.6855 200.281 77.884 199.399C77.0826 198.516 76.0557 198.075 74.8034 198.075C73.5511 198.075 72.5242 198.516 71.7228 199.399C70.9213 200.281 70.5205 201.501 70.5205 203.059C70.5205 204.642 70.9213 205.888 71.7228 206.797C72.5242 207.679 73.5511 208.121 74.8034 208.121Z" fill="white"/>
<path d="M97.5067 195.076C98.233 194.116 99.1722 193.402 100.324 192.935C101.501 192.442 102.841 192.195 104.344 192.195V198.853C103.693 198.776 103.155 198.737 102.729 198.737C101.201 198.737 99.9987 199.165 99.1221 200.022C98.2706 200.878 97.8448 202.189 97.8448 203.954V213.65H90.7067V192.545H97.5067V195.076Z" fill="white"/>
<path d="M128.633 192.545V213.65H121.833V211.547C120.506 213.183 118.502 214 115.822 214C113.969 214 112.278 213.559 110.751 212.676C109.248 211.768 108.046 210.483 107.144 208.822C106.267 207.16 105.829 205.239 105.829 203.059C105.829 200.878 106.267 198.97 107.144 197.335C108.046 195.674 109.248 194.402 110.751 193.519C112.278 192.636 113.969 192.195 115.822 192.195C118.227 192.195 120.118 192.922 121.495 194.376V192.545H128.633ZM117.325 208.121C118.577 208.121 119.604 207.679 120.406 206.797C121.207 205.888 121.608 204.642 121.608 203.059C121.608 201.501 121.207 200.281 120.406 199.399C119.604 198.516 118.577 198.075 117.325 198.075C116.073 198.075 115.046 198.516 114.244 199.399C113.443 200.281 113.042 201.501 113.042 203.059C113.042 204.642 113.443 205.888 114.244 206.797C115.046 207.679 116.073 208.121 117.325 208.121Z" fill="white"/>
<path d="M154.68 192.545L146.265 213.65H138.901L130.523 192.545H137.849L142.733 205.434L147.88 192.545H154.68Z" fill="white"/>
<path d="M156.525 192.545H163.664V213.65H156.525V192.545ZM160.095 190.209C158.792 190.209 157.74 189.833 156.939 189.08C156.137 188.327 155.737 187.393 155.737 186.276C155.737 185.16 156.137 184.226 156.939 183.473C157.74 182.72 158.792 182.344 160.095 182.344C161.397 182.344 162.449 182.707 163.25 183.434C164.052 184.135 164.453 185.043 164.453 186.16C164.453 187.328 164.052 188.301 163.25 189.08C162.449 189.833 161.397 190.209 160.095 190.209Z" fill="white"/>
<path d="M176.229 214C173.725 214 171.771 213.338 170.369 212.014C168.991 210.665 168.302 208.744 168.302 206.252V184.758H175.44V205.862C175.44 206.641 175.628 207.238 176.004 207.653C176.405 208.069 176.956 208.276 177.657 208.276C178.233 208.276 178.772 208.147 179.273 207.887L179.573 213.455C178.496 213.819 177.382 214 176.229 214Z" fill="white"/>
<path d="M195.396 192.195C197.925 192.195 199.954 192.974 201.482 194.531C203.035 196.089 203.811 198.438 203.811 201.579V213.65H196.673V202.786C196.673 199.905 195.559 198.464 193.329 198.464C192.102 198.464 191.113 198.879 190.361 199.71C189.635 200.541 189.272 201.787 189.272 203.448V213.65H182.134V184.758H189.272V194.492C190.048 193.74 190.963 193.169 192.014 192.779C193.066 192.39 194.193 192.195 195.396 192.195Z" fill="white"/>
<path d="M230.113 192.545V213.65H223.313V211.547C221.986 213.183 219.982 214 217.302 214C215.449 214 213.758 213.559 212.23 212.676C210.728 211.768 209.525 210.483 208.624 208.822C207.747 207.16 207.309 205.239 207.309 203.059C207.309 200.878 207.747 198.97 208.624 197.335C209.525 195.674 210.728 194.402 212.23 193.519C213.758 192.636 215.449 192.195 217.302 192.195C219.707 192.195 221.597 192.922 222.975 194.376V192.545H230.113ZM218.805 208.121C220.057 208.121 221.084 207.679 221.885 206.797C222.687 205.888 223.088 204.642 223.088 203.059C223.088 201.501 222.687 200.281 221.885 199.399C221.084 198.516 220.057 198.075 218.805 198.075C217.553 198.075 216.526 198.516 215.724 199.399C214.923 200.281 214.522 201.501 214.522 203.059C214.522 204.642 214.923 205.888 215.724 206.797C216.526 207.679 217.553 208.121 218.805 208.121Z" fill="white"/>
<path d="M209.253 144.688V147.384H214.482V150.062H209.253V154.264H205.902V142.01H215.193V144.688H209.253Z" fill="white"/>
<path d="M227.455 154.264L227.421 147.769L224.375 153.056H222.886L219.857 147.944V154.264H216.76V142.01H219.518L223.681 149.082L227.742 142.01H230.501L230.535 154.264H227.455Z" fill="white"/>
</svg>
